<?xml version="1.0" encoding="UTF-8" standalone="no"?>
<svg
   xmlns:dc="http://purl.org/dc/elements/1.1/"
   xmlns:cc="http://creativecommons.org/ns#"
   xmlns:rdf="http://www.w3.org/1999/02/22-rdf-syntax-ns#"
   xmlns:svg="http://www.w3.org/2000/svg"
   xmlns="http://www.w3.org/2000/svg"
   xmlns:sodipodi="http://sodipodi.sourceforge.net/DTD/sodipodi-0.dtd"
   xmlns:inkscape="http://www.inkscape.org/namespaces/inkscape"
   height="48.046875"
   viewBox="0 0 24.023438 24.023438"
   width="48.046875"
   id="svg2"
   version="1.1"
   inkscape:version="0.91 r13725"
   sodipodi:docname="logo-by.svg"
   style="fill:#000000"
   inkscape:export-filename="/home/keith/Code/node/tracman/static/img/icon/bw/logo-bw-48.png"
   inkscape:export-xdpi="89.912193"
   inkscape:export-ydpi="89.912193">
  <metadata
     id="metadata12">
    <rdf:RDF>
      <cc:Work
         rdf:about="">
        <dc:format>image/svg+xml</dc:format>
        <dc:type
           rdf:resource="http://purl.org/dc/dcmitype/StillImage" />
        <dc:title></dc:title>
      </cc:Work>
    </rdf:RDF>
  </metadata>
  <defs
     id="defs10" />
  <sodipodi:namedview
     pagecolor="#ffffff"
     bordercolor="#666666"
     borderopacity="1"
     objecttolerance="10"
     gridtolerance="10"
     guidetolerance="10"
     inkscape:pageopacity="0"
     inkscape:pageshadow="2"
     inkscape:window-width="1366"
     inkscape:window-height="748"
     id="namedview8"
     showgrid="false"
     inkscape:snap-midpoints="true"
     inkscape:zoom="19.666667"
     inkscape:cx="16.700814"
     inkscape:cy="25.296434"
     inkscape:window-x="0"
     inkscape:window-y="0"
     inkscape:window-maximized="1"
     inkscape:current-layer="svg2"
     fit-margin-top="0"
     fit-margin-left="0"
     fit-margin-right="0"
     fit-margin-bottom="0">
    <inkscape:grid
       type="xygrid"
       id="grid3337" />
  </sodipodi:namedview>
  <path
     sodipodi:type="inkscape:offset"
     inkscape:radius="3.2822878"
     inkscape:original="M 12.021484 8.0039062 A 4.2187634 4 0 1 0 15.988281 13.794922 L 12.21875 12 L 16 10.226562 A 4.2187634 4 0 0 0 12.021484 8.0039062 z "
     style="fill:#fbc93d;fill-opacity:1"
     id="path5769"
     d="M 11.876953,4.7246094 C 9.3134474,4.8381543 6.8156954,6.3243567 5.578125,8.6113281 4.3405546,10.8983 4.5056929,13.891624 5.9726562,16.033203 c 1.4669634,2.141579 4.0878638,3.372696 6.6503908,3.238281 2.562527,-0.134415 5.048175,-1.641297 6.265625,-3.939453 a 3.2826161,3.2826161 0 0 0 -0.144531,-3.3125 3.2826161,3.2826161 0 0 0 0.166015,-3.3105466 c -1.32664,-2.543804 -4.205574,-4.1095888 -7.033203,-3.984375 z"
     inkscape:export-xdpi="49.549999"
     inkscape:export-ydpi="49.549999"
     transform="translate(0.01171875,0.01171875)" />
  <path
     sodipodi:type="inkscape:offset"
     inkscape:radius="1.0124902"
     inkscape:original="M 11 1 L 11 3.0605469 C 6.83 3.5205469 3.5205469 6.83 3.0605469 11 L 1 11 L 1 13 L 3.0605469 13 C 3.5205469 17.17 6.83 20.479453 11 20.939453 L 11 23 L 13 23 L 13 20.939453 C 17.17 20.479453 20.479453 17.17 20.939453 13 L 23 13 L 23 11 L 20.939453 11 C 20.479453 6.83 17.17 3.5205469 13 3.0605469 L 13 1 L 11 1 z M 12 5 C 15.87 5 19 8.13 19 12 C 19 15.87 15.87 19 12 19 C 8.13 19 5 15.87 5 12 C 5 8.13 8.13 5 12 5 z "
     id="path5765"
     d="M 11,-0.01171875 A 1.0125914,1.0125914 0 0 0 9.9882812,1 l 0,1.3144531 C 6.1119154,3.1236169 3.1236169,6.1119154 2.3144531,9.9882812 L 1,9.9882812 A 1.0125914,1.0125914 0 0 0 -0.01171875,11 l 0,2 A 1.0125914,1.0125914 0 0 0 1,14.011719 l 1.3144531,0 c 0.8091638,3.876366 3.7974623,6.864664 7.6738281,7.673828 l 0,1.314453 A 1.0125914,1.0125914 0 0 0 11,24.011719 l 2,0 A 1.0125914,1.0125914 0 0 0 14.011719,23 l 0,-1.314453 c 3.876366,-0.809164 6.864664,-3.797462 7.673828,-7.673828 l 1.314453,0 A 1.0125914,1.0125914 0 0 0 24.011719,13 l 0,-2 A 1.0125914,1.0125914 0 0 0 23,9.9882812 l -1.314453,0 C 20.876383,6.1119154 17.888085,3.1236169 14.011719,2.3144531 L 14.011719,1 A 1.0125914,1.0125914 0 0 0 13,-0.01171875 l -2,0 z m 1,6.02343755 c 3.324075,0 5.988281,2.6642061 5.988281,5.9882812 0,3.324075 -2.664206,5.988281 -5.988281,5.988281 C 8.6759249,17.988281 6.0117188,15.324075 6.0117188,12 6.0117188,8.6759249 8.6759249,6.0117187 12,6.0117188 Z"
     style="fill:#fbc93d;fill-opacity:1"
     transform="translate(0.01171875,0.01171875)" />
  <path
     d="m 0.01171875,0.01171875 24.00000025,0 0,24.00000025 -24.00000025,0 z"
     id="path4"
     inkscape:connector-curvature="0"
     style="fill:none" />
  <path
     d="m 20.951719,11.011719 c -0.46,-4.1700003 -3.77,-7.4800002 -7.94,-7.9400002 l 0,-2.0600001 -2,0 0,2.0600001 c -4.1700003,0.46 -7.4800002,3.7699999 -7.9400002,7.9400002 l -2.0600001,0 0,2 2.0600001,0 c 0.46,4.17 3.7699999,7.48 7.9400002,7.94 l 0,2.06 2,0 0,-2.06 c 4.17,-0.46 7.48,-3.77 7.94,-7.94 l 2.06,0 0,-2 z m -8.94,8 c -3.8700002,0 -7.0000003,-3.13 -7.0000003,-7 0,-3.8700002 3.1300001,-7.0000003 7.0000003,-7.0000003 3.87,0 7,3.13 7,7.0000003 0,3.87 -3.13,7 -7,7 z"
     id="path6"
     inkscape:connector-curvature="0"
     sodipodi:nodetypes="cccccccccccccccccsssss" />
  <path
     inkscape:connector-curvature="0"
     style="fill:#000000"
     d="m 16.00053,13.806872 a 4.2187634,4 0 1 1 0.01119,-3.569022 l -3.780543,1.773886 z"
     id="path4-9" />
</svg>
