<?xml version="1.0" encoding="UTF-8" standalone="no"?>
<svg
   xmlns:dc="http://purl.org/dc/elements/1.1/"
   xmlns:cc="http://creativecommons.org/ns#"
   xmlns:rdf="http://www.w3.org/1999/02/22-rdf-syntax-ns#"
   xmlns:svg="http://www.w3.org/2000/svg"
   xmlns="http://www.w3.org/2000/svg"
   xmlns:sodipodi="http://sodipodi.sourceforge.net/DTD/sodipodi-0.dtd"
   xmlns:inkscape="http://www.inkscape.org/namespaces/inkscape"
   fill="#000000"
   height="48"
   viewBox="0 0 24 24"
   width="48"
   id="svg2"
   version="1.1"
   inkscape:version="0.91 r13725"
   sodipodi:docname="logo-white.svg">
  <metadata
     id="metadata12">
    <rdf:RDF>
      <cc:Work
         rdf:about="">
        <dc:format>image/svg+xml</dc:format>
        <dc:type
           rdf:resource="http://purl.org/dc/dcmitype/StillImage" />
        <dc:title></dc:title>
      </cc:Work>
    </rdf:RDF>
  </metadata>
  <defs
     id="defs10" />
  <sodipodi:namedview
     pagecolor="#ffffff"
     bordercolor="#666666"
     borderopacity="1"
     objecttolerance="10"
     gridtolerance="10"
     guidetolerance="10"
     inkscape:pageopacity="0"
     inkscape:pageshadow="2"
     inkscape:window-width="1366"
     inkscape:window-height="748"
     id="namedview8"
     showgrid="false"
     inkscape:snap-midpoints="true"
     inkscape:zoom="19.666667"
     inkscape:cx="16.677376"
     inkscape:cy="23.239097"
     inkscape:window-x="0"
     inkscape:window-y="0"
     inkscape:window-maximized="1"
     inkscape:current-layer="svg2" />
  <path
     d="M0 0h24v24H0z"
     id="path4"
     fill="none" />
  <path
     d="M 20.94,11 C 20.48,6.83 17.17,3.52 13,3.06 L 13,1 11,1 11,3.06 C 6.83,3.52 3.52,6.83 3.06,11 L 1,11 l 0,2 2.06,0 c 0.46,4.17 3.77,7.48 7.94,7.94 l 0,2.06 2,0 0,-2.06 C 17.17,20.48 20.48,17.17 20.94,13 L 23,13 23,11 Z M 12,19 C 8.13,19 5,15.87 5,12 5,8.13 8.13,5 12,5 c 3.87,0 7,3.13 7,7 0,3.87 -3.13,7 -7,7 z"
     id="path6"
     inkscape:connector-curvature="0"
     sodipodi:nodetypes="cccccccccccccccccsssss" />
  <path
     inkscape:connector-curvature="0"
     style="fill:#000000"
     d="m 15.988811,13.795153 a 4.2187634,4 0 1 1 0.01119,-3.569022 l -3.780543,1.773886 z"
     id="path4-9" />
  <path
     style="fill:#ffffff"
     d="m 23.490935,31.937791 c -0.09788,-0.01269 -0.453877,-0.07829 -0.791103,-0.145762 -2.300431,-0.460296 -4.337748,-1.81181 -5.524057,-3.664544 -0.44367,-0.692909 -0.880275,-1.846406 -1.037542,-2.741158 -0.12118,-0.689442 -0.122269,-2.10555 -0.0021,-2.757751 0.464315,-2.520417 1.950171,-4.475681 4.278551,-5.630218 0.780811,-0.387168 1.322452,-0.581371 2.114168,-0.758025 3.189914,-0.711761 6.433881,0.314229 8.389304,2.653339 0.380791,0.455508 0.951598,1.303892 0.998847,1.484575 0.01524,0.05827 -0.897762,0.507385 -3.707152,1.823595 -2.050054,0.960458 -3.743662,1.761257 -3.763573,1.779555 -0.01991,0.0183 1.284325,0.661512 2.898305,1.429366 1.613979,0.767854 3.308182,1.574736 3.764895,1.793071 l 0.830387,0.396973 -0.162638,0.291065 c -0.728679,1.304084 -2.000056,2.503451 -3.378348,3.187002 -1.281341,0.635469 -2.159121,0.841509 -3.687585,0.86558 -0.573305,0.009 -1.122457,0.006 -1.220339,-0.0067 z"
     id="path3339"
     inkscape:connector-curvature="0"
     transform="scale(0.5,0.5)" />
  <path
     style="fill:#ffffff"
     d="m 22.016359,43.905089 0,-2.049034 -0.472477,-0.05967 C 18.450732,41.405707 15.37349,40.075058 12.711275,37.977019 12.034625,37.443765 10.432061,35.821611 9.8923288,35.123615 7.8541766,32.48782 6.5570641,29.395497 6.1758234,26.263445 l -0.035588,-0.292373 -2.0534632,0 -2.0534632,0 0,-1.98305 0,-1.983051 2.0487483,0 2.0487482,0 0.1127191,-0.724577 c 0.599214,-3.85184 2.3287028,-7.250446 5.0915727,-10.005414 2.82101,-2.812941 6.436711,-4.5823511 10.439737,-5.1088785 l 0.241525,-0.031768 0,-2.0562064 0,-2.0562065 1.983051,0 1.983051,0 0,2.0562065 0,2.0562064 0.241525,0.031768 c 6.055798,0.7965333 11.243423,4.4983015 13.894993,9.9151405 0.844865,1.72596 1.341475,3.303861 1.636317,5.199152 l 0.112719,0.724577 2.048748,0 2.048748,0 0,1.983051 0,1.98305 -2.049826,0 -2.049828,0 -0.110799,0.75218 c -0.192208,1.304829 -0.63931,2.912391 -1.162568,4.180024 -0.543916,1.317676 -1.521782,2.976479 -2.487188,4.21914 -0.538794,0.693528 -1.785803,1.987976 -2.461824,2.555474 -2.204829,1.850884 -4.683929,3.120243 -7.372882,3.775094 -0.612253,0.149105 -1.917248,0.382495 -2.138709,0.382495 l -0.149426,0 0,2.059322 0,2.059322 -1.983051,0 -1.983051,0 0,-2.049034 z m 4.037633,-6.035108 c 4.972356,-0.752988 9.139502,-4.053473 10.978841,-8.695519 0.676309,-1.706842 0.970201,-3.280364 0.968687,-5.18644 -0.0012,-1.506015 -0.146533,-2.554072 -0.547231,-3.946206 -0.48784,-1.694889 -1.410776,-3.454087 -2.558029,-4.875828 -0.491872,-0.609556 -1.653766,-1.754156 -2.252782,-2.21925 -2.69679,-2.09387 -6.060389,-3.1401596 -9.444915,-2.93796 -3.017545,0.180276 -5.78054,1.254768 -8.082868,3.14332 -0.65663,0.53862 -1.696105,1.594085 -2.15865,2.191856 -1.608249,2.078424 -2.583835,4.467791 -2.896184,7.09322 -0.083554,0.702309 -0.083555,2.480821 -10e-7,3.152542 0.401961,3.231545 1.794606,6.103508 4.044146,8.339988 1.088817,1.082496 2.28325,1.940209 3.635698,2.610767 1.401625,0.69494 2.755494,1.118848 4.241388,1.328015 1.012296,0.142499 1.052732,0.144737 2.271555,0.125676 0.778237,-0.01217 1.29696,-0.04795 1.800345,-0.124181 z"
     id="path3341"
     inkscape:connector-curvature="0"
     transform="scale(0.5,0.5)" />
</svg>
