<?xml version="1.0" encoding="UTF-8" standalone="no"?>
<svg
   xmlns:dc="http://purl.org/dc/elements/1.1/"
   xmlns:cc="http://creativecommons.org/ns#"
   xmlns:rdf="http://www.w3.org/1999/02/22-rdf-syntax-ns#"
   xmlns:svg="http://www.w3.org/2000/svg"
   xmlns="http://www.w3.org/2000/svg"
   xmlns:sodipodi="http://sodipodi.sourceforge.net/DTD/sodipodi-0.dtd"
   xmlns:inkscape="http://www.inkscape.org/namespaces/inkscape"
   fill="#000000"
   height="48"
   viewBox="0 0 24 24"
   width="48"
   id="svg2"
   version="1.1"
   inkscape:version="0.91 r13725"
   sodipodi:docname="logo-yellow.svg">
  <metadata
     id="metadata12">
    <rdf:RDF>
      <cc:Work
         rdf:about="">
        <dc:format>image/svg+xml</dc:format>
        <dc:type
           rdf:resource="http://purl.org/dc/dcmitype/StillImage" />
        <dc:title></dc:title>
      </cc:Work>
    </rdf:RDF>
  </metadata>
  <defs
     id="defs10" />
  <sodipodi:namedview
     pagecolor="#ffffff"
     bordercolor="#666666"
     borderopacity="1"
     objecttolerance="10"
     gridtolerance="10"
     guidetolerance="10"
     inkscape:pageopacity="0"
     inkscape:pageshadow="2"
     inkscape:window-width="1366"
     inkscape:window-height="748"
     id="namedview8"
     showgrid="false"
     inkscape:snap-midpoints="true"
     inkscape:zoom="19.666667"
     inkscape:cx="17.084156"
     inkscape:cy="23.340792"
     inkscape:window-x="0"
     inkscape:window-y="0"
     inkscape:window-maximized="1"
     inkscape:current-layer="svg2" />
  <path
     d="M0 0h24v24H0z"
     id="path4"
     fill="none" />
  <path
     d="M 20.94,11 C 20.48,6.83 17.17,3.52 13,3.06 L 13,1 11,1 11,3.06 C 6.83,3.52 3.52,6.83 3.06,11 L 1,11 l 0,2 2.06,0 c 0.46,4.17 3.77,7.48 7.94,7.94 l 0,2.06 2,0 0,-2.06 C 17.17,20.48 20.48,17.17 20.94,13 L 23,13 23,11 Z M 12,19 C 8.13,19 5,15.87 5,12 5,8.13 8.13,5 12,5 c 3.87,0 7,3.13 7,7 0,3.87 -3.13,7 -7,7 z"
     id="path6"
     inkscape:connector-curvature="0"
     sodipodi:nodetypes="cccccccccccccccccsssss"
     style="fill:#fbc93d;fill-opacity:1" />
  <path
     inkscape:connector-curvature="0"
     style="fill:#fbc93d;fill-opacity:1"
     d="m 15.988811,13.795153 a 4.2187634,4 0 1 1 0.01119,-3.569022 l -3.780543,1.773886 z"
     id="path4-9" />
</svg>
